<svg aria-hidden="true" style="position: absolute; width: 0; height: 0; overflow: hidden;" version="1.1" xmlns="http://www.w3.org/2000/svg" xmlns:xlink="http://www.w3.org/1999/xlink">
<defs>
<symbol id="icon-logo" viewBox="0 0 37 32">
    <path d="M9.586 31.093c-1.203 0.575-3.53 1.49-4.718 0.394-0.826-0.762-0.78-2.682-0.721-3.731 0.186-3.323 1.961-6.6 3.837-9.175 2.243-3.078 5.599-5.427 9.257-5.558 2.776-0.1 5.512 1.086 7.68 2.935s3.806 4.325 5.064 6.961c0.614 1.286 1.153 2.661 1.174 4.104s-0.579 2.972-1.77 3.661c-0.955 0.552-2.135 0.487-3.168 0.129s-1.965-0.979-2.922-1.527c-1.765-1.011-3.724-1.799-5.725-1.669-2.893 0.188-5.343 2.214-7.987 3.477z"></path>
    <path d="M6.842 14.858c0.355 3.116-1.869 4.812-4.141 2.469-1.393-1.437-2.478-3.992-2.672-6.047-0.098-1.036 0.021-2.206 0.755-2.894 0.703-0.659 1.802-0.663 2.641-0.219s1.454 1.257 1.937 2.112c0.788 1.393 1.295 2.965 1.479 4.579z"></path>
    <path d="M15.24 6.465c0.468 2.097-0.088 5.335-2.75 5.096-3.187-0.285-3.557-6.138-3.212-8.55 0.129-0.905 0.459-1.915 1.261-2.245 0.552-0.228 1.194-0.053 1.681 0.305s0.846 0.877 1.181 1.396c0.793 1.23 1.515 2.546 1.839 3.998z"></path>
    <path d="M26.322 5.094c0.029-1.39-0.262-2.849-1.12-3.897s-2.373-1.555-3.53-0.911c-1.201 0.668-1.643 2.246-1.841 3.673-0.269 1.938-0.704 5.499 0.626 7.131 0.832 1.022 2.080 0.49 3.035-0.1 1.872-1.159 2.785-3.688 2.83-5.896z"></path>
    <path d="M34.164 17.808c-1.875 1.882-5.707 1.299-5.369-1.948 0.229-2.196 1.633-4.459 2.906-6.144 0.776-1.028 1.912-2.020 3.122-1.734 0.959 0.227 1.619 1.235 1.787 2.265s-0.062 2.084-0.322 3.093c-0.421 1.63-0.968 3.307-2.124 4.467z"></path>
</symbol>
<symbol id="icon-youtube" viewBox="0 0 32 32">
    <path fill="#000" style="fill: var(--color1, #000)" d="M32 16c0-8.837-7.163-16-16-16s-16 7.163-16 16c0 8.837 7.163 16 16 16s16-7.163 16-16z"></path>
    <path fill="#fff" style="fill: var(--color2, #fff)" d="M26.075 12.684c-0.126-1.215-0.397-2.559-1.394-3.265-0.772-0.548-1.788-0.568-2.735-0.567-2.004 0-4.008 0.003-6.012 0.005-1.927 0.002-3.854 0.003-5.781 0.006-0.805 0-1.588-0.062-2.335 0.287-0.642 0.299-1.145 0.868-1.447 1.501-0.419 0.88-0.507 1.878-0.558 2.851-0.093 1.773-0.083 3.551 0.028 5.322 0.082 1.293 0.29 2.722 1.29 3.546 0.886 0.73 2.136 0.766 3.285 0.767 3.647 0.003 7.296 0.007 10.944 0.009 0.468 0.001 0.956-0.008 1.432-0.060 0.938-0.101 1.831-0.37 2.434-1.065 0.608-0.7 0.765-1.675 0.857-2.598 0.225-2.24 0.223-4.501-0.008-6.739zM13.824 19.139v-6.279l5.437 3.139-5.437 3.14z"></path>
</symbol>
<symbol id="icon-facebook" viewBox="0 0 32 32">
    <path fill="#000" style="fill: var(--color1, #000)" d="M31.998 16.001c0 8.081-5.99 14.762-13.771 15.846-0.728 0.101-1.472 0.154-2.228 0.154-0.872 0-1.729-0.070-2.563-0.204-7.618-1.227-13.436-7.832-13.436-15.795 0-8.837 7.164-16.001 16-16.001s16 7.164 16 16.001h-0.002z"></path>
    <path fill="#fff" style="fill: var(--color2, #fff)" d="M18.227 12.848v3.486h4.312l-0.683 4.695h-3.629v10.818c-0.728 0.101-1.472 0.154-2.228 0.154-0.872 0-1.729-0.070-2.563-0.204v-10.767h-3.976v-4.695h3.976v-4.265c0-2.646 2.145-4.792 4.792-4.792v0.002c0.008 0 0.015-0.002 0.022-0.002h4.289v4.061h-2.803c-0.833 0-1.509 0.676-1.509 1.509l-0.001 0.001z"></path>
</symbol>
<symbol id="icon-instagram" viewBox="0 0 32 32">
    <path fill="#000" style="fill: var(--color1, #000)" d="M16.036 0h-0.073c-8.816 0-15.964 7.147-15.964 15.964v0.073c0 8.816 7.147 15.964 15.964 15.964h0.073c8.816 0 15.964-7.147 15.964-15.964v-0.073c0-8.816-7.147-15.964-15.964-15.964z"></path>
    <path fill="#fff" style="fill: var(--color2, #fff)" d="M20.95 6.51h-9.902c-2.736 0-4.961 2.225-4.961 4.961v9.059c0 2.736 2.225 4.961 4.961 4.961h9.902c2.736 0 4.961-2.225 4.961-4.961v-9.059c0-2.736-2.225-4.961-4.961-4.961zM7.837 11.471c0-1.77 1.441-3.211 3.211-3.211h9.902c1.77 0 3.211 1.441 3.211 3.211v9.059c0 1.77-1.441 3.211-3.211 3.211h-9.902c-1.77 0-3.211-1.441-3.211-3.211v-9.059z"></path>
    <path fill="#fff" style="fill: var(--color2, #fff)" d="M15.998 20.614c2.544 0 4.615-2.070 4.615-4.614s-2.070-4.614-4.614-4.614c-2.545 0-4.614 2.070-4.614 4.614s2.070 4.614 4.614 4.614zM15.998 13.136c1.58 0 2.864 1.285 2.864 2.864s-1.285 2.864-2.864 2.864c-1.58 0-2.864-1.285-2.864-2.864s1.285-2.864 2.864-2.864z"></path>
    <path fill="#fff" style="fill: var(--color2, #fff)" d="M21.040 12.13c0.685 0 1.243-0.557 1.243-1.243s-0.557-1.243-1.243-1.243c-0.686 0-1.243 0.557-1.243 1.243s0.557 1.243 1.243 1.243z"></path>
</symbol>
<symbol id="icon-twitter" viewBox="0 0 32 32">
    <path fill="#000" style="fill: var(--color1, #000)" d="M31.998 16.001c0 8.081-5.99 14.762-13.771 15.846-0.728 0.101-1.472 0.154-2.228 0.154-0.872 0-1.729-0.070-2.563-0.204-7.618-1.227-13.436-7.832-13.436-15.795 0-8.837 7.164-16.001 16-16.001s16 7.164 16 16.001h-0.002z"></path>
    <path fill="#fff" style="fill: var(--color2, #fff)" d="M6.488 7.057l7.379 9.866-7.425 8.022h1.672l6.501-7.023 5.252 7.023h5.687l-7.794-10.421 6.911-7.467h-1.672l-5.986 6.468-4.838-6.468h-5.688zM8.945 8.288h2.612l11.537 15.425h-2.612l-11.537-15.425z"></path>
</symbol>
<symbol id="icon-star" viewBox="0 0 32 32">
<path d="M21.865 19.308l5.885-5.712-8.115-1.192-3.635-7.346-3.635 7.346-8.115 1.192 5.885 5.712-1.404 8.096 7.269-3.827 7.25 3.827-1.385-8.096zM32 12.442c0 0.282-0.167 0.59-0.5 0.923l-6.981 6.808 1.654 9.615c0.013 0.090 0.019 0.218 0.019 0.385 0 0.641-0.263 0.962-0.788 0.962-0.244 0-0.5-0.077-0.769-0.231l-8.635-4.538-8.635 4.538c-0.282 0.154-0.538 0.231-0.769 0.231-0.269 0-0.471-0.093-0.606-0.279s-0.202-0.413-0.202-0.683c0-0.077 0.013-0.205 0.038-0.385l1.654-9.615-7-6.808c-0.321-0.346-0.481-0.654-0.481-0.923 0-0.474 0.359-0.769 1.077-0.885l9.654-1.404 4.327-8.75c0.244-0.526 0.558-0.788 0.942-0.788s0.699 0.263 0.942 0.788l4.327 8.75 9.654 1.404c0.718 0.115 1.077 0.41 1.077 0.885z"></path>
</symbol>
</defs>
</svg>
